<?xml version="1.0" standalone="no"?>
<!DOCTYPE svg PUBLIC "-//W3C//DTD SVG 20010904//EN"
 "http://www.w3.org/TR/2001/REC-SVG-20010904/DTD/svg10.dtd">
<svg version="1.0" xmlns="http://www.w3.org/2000/svg"
 width="348.000000pt" height="348.000000pt" viewBox="0 0 348.000000 348.000000"
 preserveAspectRatio="xMidYMid meet">
<metadata>
Created by potrace 1.14, written by Peter Selinger 2001-2017
</metadata>
<g transform="translate(0.000000,348.000000) scale(0.100000,-0.100000)"
fill="#000000" stroke="none">
<path d="M2435 3410 c-94 -15 -163 -38 -260 -87 -82 -42 -103 -60 -243 -202
l-153 -155 120 -120 119 -119 104 95 c161 147 249 188 404 188 181 0 339 -96
427 -259 78 -142 75 -345 -6 -479 -20 -33 -167 -187 -397 -415 -342 -340 -369
-365 -435 -395 -122 -55 -252 -62 -371 -21 -63 21 -114 53 -180 112 l-51 46
-137 -138 -137 -137 79 -76 c160 -153 333 -222 552 -221 164 0 299 40 428 127
45 30 216 194 518 498 l450 453 47 95 c70 141 90 234 85 389 -4 106 -10 141
-36 221 -66 198 -243 405 -442 513 -133 73 -338 110 -485 87z"/>
<path d="M1515 2449 c-122 -18 -243 -68 -350 -144 -62 -45 -895 -876 -933
-931 -11 -16 -36 -62 -56 -100 -121 -242 -110 -535 30 -767 49 -80 220 -256
304 -312 89 -59 204 -103 323 -122 85 -14 113 -15 199 -4 126 16 246 58 344
122 69 45 344 301 344 320 0 8 -141 147 -211 207 l-36 31 -104 -94 c-154 -141
-250 -185 -399 -185 -137 0 -245 45 -340 141 -155 157 -193 394 -93 583 19 36
126 151 363 389 184 186 361 358 393 382 185 141 447 132 615 -20 62 -56 40
-67 210 104 l124 123 -29 30 c-86 90 -227 180 -343 216 -117 38 -237 48 -355
31z"/>
</g>
</svg>
